HIERARCHY
ROOT Hips
{
	OFFSET 0.00000 0.00000 0.00000
	CHANNELS 6 Xposition Yposition Zposition Zrotation Yrotation Xrotation 
	JOINT LHipJoint
	{
		OFFSET 0 0 0
		CHANNELS 3 Zrotation Yrotation Xrotation
		JOINT LeftUpLeg
		{
			OFFSET 1.62964 -1.40469 0.78906
			CHANNELS 3 Zrotation Yrotation Xrotation
			JOINT LeftLeg
			{
				OFFSET 2.29640 -6.30932 0.00000
				CHANNELS 3 Zrotation Yrotation Xrotation
				JOINT LeftFoot
				{
					OFFSET 2.29451 -6.30412 0.00000
					CHANNELS 3 Zrotation Yrotation Xrotation
					JOINT LeftToeBase
					{
						OFFSET 0.03611 -0.09921 1.56387
						CHANNELS 3 Zrotation Yrotation Xrotation
						End Site
						{
							OFFSET 0.00000 -0.00000 0.80291
						}
					}
				}
			}
		}
	}
	JOINT RHipJoint
	{
		OFFSET 0 0 0
		CHANNELS 3 Zrotation Yrotation Xrotation
		JOINT RightUpLeg
		{
			OFFSET -1.73712 -1.40469 0.78906
			CHANNELS 3 Zrotation Yrotation Xrotation
			JOINT RightLeg
			{
				OFFSET -2.28137 -6.26801 0.00000
				CHANNELS 3 Zrotation Yrotation Xrotation
				JOINT RightFoot
				{
					OFFSET -2.28681 -6.28298 0.00000
					CHANNELS 3 Zrotation Yrotation Xrotation
					JOINT RightToeBase
					{
						OFFSET -0.15927 -0.43759 1.61103
						CHANNELS 3 Zrotation Yrotation Xrotation
						End Site
						{
							OFFSET -0.00000 -0.00000 0.84630
						}
					}
				}
			}
		}
	}
	JOINT LowerBack
	{
		OFFSET 0 0 0
		CHANNELS 3 Zrotation Yrotation Xrotation
		JOINT Spine
		{
			OFFSET -0.04227 2.04338 -0.00225
			CHANNELS 3 Zrotation Yrotation Xrotation
			JOINT Spine1
			{
				OFFSET -0.02148 2.04482 -0.04273
				CHANNELS 3 Zrotation Yrotation Xrotation
				JOINT Neck
				{
					OFFSET 0 0 0
					CHANNELS 3 Zrotation Yrotation Xrotation
					JOINT Neck1
					{
						OFFSET 0.09180 1.44629 0.19359
						CHANNELS 3 Zrotation Yrotation Xrotation
						JOINT Head
						{
							OFFSET 0.00887 1.40645 0.14750
							CHANNELS 3 Zrotation Yrotation Xrotation
							End Site
							{
								OFFSET -0.00669 1.50671 0.03707
							}
						}
					}
				}
				JOINT LeftShoulder
				{
					OFFSET 0 0 0
					CHANNELS 3 Zrotation Yrotation Xrotation
					JOINT LeftArm
					{
						OFFSET 2.17674 1.86763 -0.06520
						CHANNELS 3 Zrotation Yrotation Xrotation
						JOINT LeftForeArm
						{
							OFFSET 4.65776 -0.00000 0.00000
							CHANNELS 3 Zrotation Yrotation Xrotation
							JOINT LeftHand
							{
								OFFSET 3.55539 -0.00000 0.00000
								CHANNELS 3 Zrotation Yrotation Xrotation
								JOINT LeftFingerBase
								{
									OFFSET 0 0 0
									CHANNELS 3 Zrotation Yrotation Xrotation
									JOINT LeftHandIndex1
									{
										OFFSET 0.70726 -0.00000 0.00000
										CHANNELS 3 Zrotation Yrotation Xrotation
										End Site
										{
											OFFSET 0.57022 -0.00000 0.00000
										}
									}
								}
								JOINT LThumb
								{
									OFFSET 0 0 0
									CHANNELS 3 Zrotation Yrotation Xrotation
									End Site
									{
										OFFSET 0.57892 -0.00000 0.57892
									}
								}
							}
						}
					}
				}
				JOINT RightShoulder
				{
					OFFSET 0 0 0
					CHANNELS 3 Zrotation Yrotation Xrotation
					JOINT RightArm
					{
						OFFSET -2.80694 1.55459 -0.32496
						CHANNELS 3 Zrotation Yrotation Xrotation
						JOINT RightForeArm
						{
							OFFSET -4.71925 -0.00000 -0.00000
							CHANNELS 3 Zrotation Yrotation Xrotation
							JOINT RightHand
							{
								OFFSET -3.56990 -0.00000 0.00000
								CHANNELS 3 Zrotation Yrotation Xrotation
								JOINT RightFingerBase
								{
									OFFSET 0 0 0
									CHANNELS 3 Zrotation Yrotation Xrotation
									JOINT RightHandIndex1
									{
										OFFSET -0.50776 -0.00000 0.00000
										CHANNELS 3 Zrotation Yrotation Xrotation
										End Site
										{
											OFFSET -0.40937 -0.00000 0.00000
										}
									}
								}
								JOINT RThumb
								{
									OFFSET 0 0 0
									CHANNELS 3 Zrotation Yrotation Xrotation
									End Site
									{
										OFFSET -0.41562 -0.00000 0.41562
									}
								}
							}
						}
					}
				}
			}
		}
	}
}
MOTION
Frames: 5
Frame Time: .0083333
-1.2779 18.0907 21.6774 0 0 0 0 0 0 -21 0 0 0 0 0 0 0 0 0 0 0 0 0 0 21 0 0 0 0 0 0 0 0 0 0 0 0 0 0 0 0 0 0 0 0 0 0 -16 0 0 21 0 0 11 0 0 0 -8 0 0 0 0 0 0 0 0 0 0 0 0 0 0 0 0 0 0 0 0 8 0 0 0 0 0 0 0 0 0 0 0 0 0 0 0 0 0
-1.2779 18.0907 21.6774 175.9870 1.4271 -156.7950 0.0000 0.0000 0.0000 -26.2486 -11.8801 -21.0569 0.1030 2.0699 5.6989 0.0848 -4.1472 -5.5428 5.8417 -14.2732 -44.3431 0.0000 0.0000 0.0000 12.7011 19.7546 -24.4160 -0.6394 -5.1157 14.2387 -1.1919 3.4175 -19.7869 -0.5544 4.7697 -13.2530 -9.8850 -2.0476 -17.4086 -0.4223 -0.4071 2.9530 5.0331 -0.9028 13.3087 -1.6194 -3.0741 -0.5996 3.6575 -2.2091 26.5160 1.4964 0.1099 8.3692 -0.0000 0.0000 0.0000 -82.0786 -5.6317 22.4579 29.1404 -40.1451 -10.8511 -0.0000 0.0000 -32.6266 23.2257 -11.4472 -4.8680 -7.1250 0.0000 -0.0000 -2.7408 17.5619 1.7881 -0.0000 0.0000 0.0000 88.8050 -13.4150 11.9226 -29.4102 40.3825 -11.0255 0.0000 0.0000 22.0748 -14.3084 -36.3550 8.5976 7.1250 -0.0000 -0.0000 25.3815 -65.5037 -12.9465
-1.2961 18.0476 21.6877 176.1430 1.0106 -154.8680 0.0000 0.0000 0.0000 -25.6443 -13.2419 -23.3810 0.1273 2.2999 6.3352 0.0008 -4.7564 -3.3588 3.6679 -11.7048 -34.6956 0.0000 0.0000 0.0000 12.1057 19.6710 -27.0193 -0.6728 -5.2450 14.6087 -1.1783 3.4584 -19.6626 -0.6158 5.0221 -13.9716 -9.0487 -2.2606 -19.4287 -0.4536 -0.6588 2.5125 4.4448 -0.9607 14.0065 -1.5044 -3.0559 -0.5835 3.7353 -2.2321 26.3796 1.4982 0.1080 8.3187 -0.0000 -0.0000 0.0000 -82.0586 -5.4928 24.4437 28.2444 -39.3402 -10.2782 -0.0000 0.0000 -28.2718 23.6190 -11.2600 -4.8803 -7.1250 0.0000 -0.0000 -2.4567 17.7271 1.5935 -0.0000 -0.0000 0.0000 88.6554 -12.5041 9.8632 -33.7545 43.9020 -13.9426 0.0000 0.0000 0.0301 6.4262 -52.1231 -5.0804 7.1250 -0.0000 -0.0000 74.0219 -68.8624 -51.2434
-1.2857 18.0417 21.6696 176.4220 0.7858 -154.6800 0.0000 0.0000 0.0000 -25.2617 -13.0896 -23.5584 0.1251 2.2800 6.2801 -0.0647 -5.3932 -1.1899 1.7249 -8.2678 -23.5305 0.0000 0.0000 0.0000 12.4860 19.7486 -26.8548 -0.6424 -5.1275 14.2725 -1.1916 3.9015 -19.7099 -0.4808 4.4467 -12.3369 -8.7874 -2.1593 -19.7964 -0.3269 -0.7387 2.4782 4.3973 -1.0588 14.1787 -1.3953 -3.1119 -0.4774 3.7227 -2.3192 26.2906 1.4679 0.0736 8.2696 0.0000 -0.0000 0.0000 -82.1514 -5.1273 26.4639 27.4335 -38.5894 -9.7683 -0.0000 0.0000 -23.5834 23.9874 -11.1585 -4.9217 -7.1250 0.0000 -0.0000 -2.1935 17.8021 1.4189 0.0000 -0.0000 0.0000 88.5817 -12.6282 10.4463 -33.5608 43.7566 -13.8084 0.0000 -0.0000 -2.0626 0.7058 -54.1412 -0.5720 7.1250 -0.0000 -0.0000 76.2719 -71.4015 -56.5289
-1.2803 18.0392 21.6547 176.7230 0.6462 -154.4660 0.0000 0.0000 0.0000 -24.8514 -13.0281 -23.7551 0.1221 2.2526 6.2044 -0.0979 -5.6604 0.8296 0.3829 -3.9741 -11.0037 0.0000 0.0000 0.0000 12.8708 19.8112 -26.8924 -0.6323 -5.0879 14.1593 -1.1955 4.4006 -19.6778 -0.4028 4.0747 -11.2869 -8.3984 -2.0848 -20.2514 -0.2468 -0.6961 2.4710 4.2794 -1.0201 14.4242 -1.3253 -3.1353 -0.3179 3.7547 -2.3816 26.0639 1.4587 0.0429 8.1640 0.0000 -0.0000 0.0000 -82.1957 -4.8032 28.7300 26.6318 -37.8258 -9.2724 -0.0000 0.0000 -18.1805 24.3354 -11.1631 -5.0040 -7.1250 0.0000 -0.0000 -1.9495 17.7638 1.2625 0.0000 -0.0000 0.0000 88.6816 -12.6643 11.0467 -33.4455 43.6697 -13.7287 0.0000 -0.0000 -4.5417 -9.4006 -55.3401 7.7548 7.1250 -0.0000 -0.0000 76.5898 -75.2682 -61.3602
